# xmcd
#
# Track frame offsets: 
#        150
#        27307
#        46175
#        67817
#        89300
#        111310
#        134715
#        163272
#        182277
#        206997
#        236490
#
# Disc length: 3437 seconds
#
# Revision: 9
# Processed by: cddbd v1.5.2PL0 Copyright (c) Steve Scherf et al.
# Submitted via: ExactAudioCopy v1.1
#
DISCID=970d6b0b
DTITLE=Cray Band, The Robert - Some Rainy Morning
DYEAR=1995
DGENRE=Blues
TTITLE0=Moan
TTITLE1=I'll Go On
TTITLE2=Steppin' Out
TTITLE3=Never Mattered Much
TTITLE4=Tell The Landlord
TTITLE5=Little Boy Big
TTITLE6=Enough For Me
TTITLE7=Jealous Love
TTITLE8=Will You Think Of Me
TTITLE9=Holdin' On
TTITLE10=Love Well Spent
EXTD=
EXTT0=
EXTT1=
EXTT2=
EXTT3=
EXTT4=
EXTT5=
EXTT6=
EXTT7=
EXTT8=
EXTT9=
EXTT10=
PLAYORDER=
